<svg xmlns="http://www.w3.org/2000/svg" width="1440" height="2396" viewBox="0 0 1440 2396" role="img" aria-labelledby="title desc">
<title id="title">Chiral metamaterials task routes</title>
<desc id="desc">All operations in the first or designated complete reference route, plus the full branch index. Dashed connectors show authored reference order only. Loop bodies are shown once with original loop metadata in the interactive inspector. No scientific execution claimed.</desc>
<defs><marker id="arrow" markerWidth="8" markerHeight="8" refX="6" refY="3" orient="auto"><path d="M0,0 L6,3 L0,6" fill="none" stroke="#708399"/></marker></defs>
<style>text{font-family:Arial,sans-serif} .muted{fill:#a9b7c8;font-size:16px}.title{fill:#f4f7fc;font-weight:700}.small{fill:#a9b7c8;font-size:14px}</style>
<rect width="1440" height="2396" fill="#101820"/>
<rect x="0" y="0" width="1440" height="8" fill="#8d6bce"/>
<text font-family="Arial, sans-serif" x="48" y="62" fill="#a9b7c8" font-size="16">SCIENCEGYM / TASK EXPLORER</text>
<text font-family="Arial, sans-serif" x="48" y="118" font-size="38" fill="#f4f7fc" font-weight="700">Chiral metamaterials</text>
<text font-family="Arial, sans-serif" x="48" y="156" fill="#a9b7c8" font-size="16">31 operation definitions · 28 route / branch records · 0 validated runnable whole-paper tasks</text>
<rect x="48" y="182" width="1344" height="72" rx="10" fill="#25303b"/>
<text font-family="Arial, sans-serif" x="68" y="211" fill="#e8bf69" font-size="16">DESIGN REFERENCE ONLY · Reported scientific stages + separately authored robot handling</text>
<text font-family="Arial, sans-serif" x="68" y="236" fill="#a9b7c8" font-size="14">Dashes = reference display order, not proven source chronology. Branch choices are not connected to each other.</text>
<text font-family="Arial, sans-serif" x="48" y="292" fill="#f4f7fc" font-weight="700" font-size="22">Route R01 · every listed step</text>
<text font-family="Arial, sans-serif" x="48" y="320" fill="#a9b7c8" font-size="16">rubber chiral rod / table row1</text>
<text font-family="Arial, sans-serif" x="1000" y="292" fill="#f4f7fc" font-weight="700" font-size="22">All route choices</text>
<rect x="1000" y="333" width="392" height="48" rx="6" fill="#1b2935"/>
<text font-family="Arial, sans-serif" x="1014" y="352" fill="#8d6bce" font-size="13" font-weight="700">R01</text>
<text font-family="Arial, sans-serif" x="1014" y="371" fill="#e4ecf7" font-size="12">rubber chiral rod / table row1</text>
<rect x="1000" y="388" width="392" height="48" rx="6" fill="#1b2935"/>
<text font-family="Arial, sans-serif" x="1014" y="407" fill="#8d6bce" font-size="13" font-weight="700">R02</text>
<text font-family="Arial, sans-serif" x="1014" y="426" fill="#e4ecf7" font-size="12">rubber prism rod / table row2</text>
<rect x="1000" y="443" width="392" height="48" rx="6" fill="#1b2935"/>
<text font-family="Arial, sans-serif" x="1014" y="462" fill="#8d6bce" font-size="13" font-weight="700">R03</text>
<text font-family="Arial, sans-serif" x="1014" y="481" fill="#e4ecf7" font-size="12">rubber octahedral rod / table row3</text>
<rect x="1000" y="498" width="392" height="48" rx="6" fill="#1b2935"/>
<text font-family="Arial, sans-serif" x="1014" y="517" fill="#8d6bce" font-size="13" font-weight="700">R04</text>
<text font-family="Arial, sans-serif" x="1014" y="536" fill="#e4ecf7" font-size="12">rubber octahedral rod / table row4</text>
<rect x="1000" y="553" width="392" height="48" rx="6" fill="#1b2935"/>
<text font-family="Arial, sans-serif" x="1014" y="572" fill="#8d6bce" font-size="13" font-weight="700">R05</text>
<text font-family="Arial, sans-serif" x="1014" y="591" fill="#e4ecf7" font-size="12">rubber Kelvin rod / table row5</text>
<rect x="1000" y="608" width="392" height="48" rx="6" fill="#1b2935"/>
<text font-family="Arial, sans-serif" x="1014" y="627" fill="#8d6bce" font-size="13" font-weight="700">R06</text>
<text font-family="Arial, sans-serif" x="1014" y="646" fill="#e4ecf7" font-size="12">rubber Kelvin rod / table row6</text>
<rect x="1000" y="663" width="392" height="48" rx="6" fill="#1b2935"/>
<text font-family="Arial, sans-serif" x="1014" y="682" fill="#8d6bce" font-size="13" font-weight="700">R07</text>
<text font-family="Arial, sans-serif" x="1014" y="701" fill="#e4ecf7" font-size="12">rubber prism plate_thickness / table row7</text>
<rect x="1000" y="718" width="392" height="48" rx="6" fill="#1b2935"/>
<text font-family="Arial, sans-serif" x="1014" y="737" fill="#8d6bce" font-size="13" font-weight="700">R08</text>
<text font-family="Arial, sans-serif" x="1014" y="756" fill="#e4ecf7" font-size="12">rubber tensegrity rod / table row8</text>
<rect x="1000" y="773" width="392" height="48" rx="6" fill="#1b2935"/>
<text font-family="Arial, sans-serif" x="1014" y="792" fill="#8d6bce" font-size="13" font-weight="700">R09</text>
<text font-family="Arial, sans-serif" x="1014" y="811" fill="#e4ecf7" font-size="12">rubber tensegrity rod / table row9</text>
<rect x="1000" y="828" width="392" height="48" rx="6" fill="#1b2935"/>
<text font-family="Arial, sans-serif" x="1014" y="847" fill="#8d6bce" font-size="13" font-weight="700">R10</text>
<text font-family="Arial, sans-serif" x="1014" y="866" fill="#e4ecf7" font-size="12">rubber tensegrity rod / table row10</text>
<rect x="1000" y="883" width="392" height="48" rx="6" fill="#1b2935"/>
<text font-family="Arial, sans-serif" x="1014" y="902" fill="#8d6bce" font-size="13" font-weight="700">R11</text>
<text font-family="Arial, sans-serif" x="1014" y="921" fill="#e4ecf7" font-size="12">rubber tensegrity rod / table row11</text>
<rect x="1000" y="938" width="392" height="48" rx="6" fill="#1b2935"/>
<text font-family="Arial, sans-serif" x="1014" y="957" fill="#8d6bce" font-size="13" font-weight="700">M12</text>
<text font-family="Arial, sans-serif" x="1014" y="976" fill="#e4ecf7" font-size="12">TC4 chiral rod / table row12</text>
<rect x="1000" y="993" width="392" height="48" rx="6" fill="#1b2935"/>
<text font-family="Arial, sans-serif" x="1014" y="1012" fill="#8d6bce" font-size="13" font-weight="700">M13</text>
<text font-family="Arial, sans-serif" x="1014" y="1031" fill="#e4ecf7" font-size="12">TC4 chiral square_beam_b_equals_t / table row13</text>
<rect x="1000" y="1048" width="392" height="48" rx="6" fill="#1b2935"/>
<text font-family="Arial, sans-serif" x="1014" y="1067" fill="#8d6bce" font-size="13" font-weight="700">M14</text>
<text font-family="Arial, sans-serif" x="1014" y="1086" fill="#e4ecf7" font-size="12">TC4 prism rod / table row14</text>
<rect x="1000" y="1103" width="392" height="48" rx="6" fill="#1b2935"/>
<text font-family="Arial, sans-serif" x="1014" y="1122" fill="#8d6bce" font-size="13" font-weight="700">M15</text>
<text font-family="Arial, sans-serif" x="1014" y="1141" fill="#e4ecf7" font-size="12">TC4 prism plate_thickness / table row15</text>
<rect x="1000" y="1158" width="392" height="48" rx="6" fill="#1b2935"/>
<text font-family="Arial, sans-serif" x="1014" y="1177" fill="#8d6bce" font-size="13" font-weight="700">M16</text>
<text font-family="Arial, sans-serif" x="1014" y="1196" fill="#e4ecf7" font-size="12">TC4 rotation-locked chiral/nonchiral bending rod /…</text>
<rect x="1000" y="1213" width="392" height="48" rx="6" fill="#1b2935"/>
<text font-family="Arial, sans-serif" x="1014" y="1232" fill="#8d6bce" font-size="13" font-weight="700">M17</text>
<text font-family="Arial, sans-serif" x="1014" y="1251" fill="#e4ecf7" font-size="12">TC4 rotation-locked chiral/nonchiral bending rod /…</text>
<rect x="1000" y="1268" width="392" height="48" rx="6" fill="#1b2935"/>
<text font-family="Arial, sans-serif" x="1014" y="1287" fill="#8d6bce" font-size="13" font-weight="700">R_SMALL20</text>
<text font-family="Arial, sans-serif" x="1014" y="1306" fill="#e4ecf7" font-size="12">20° small rubber chiral specimen</text>
<rect x="1000" y="1323" width="392" height="48" rx="6" fill="#1b2935"/>
<text font-family="Arial, sans-serif" x="1014" y="1342" fill="#8d6bce" font-size="13" font-weight="700">R_SMALL50</text>
<text font-family="Arial, sans-serif" x="1014" y="1361" fill="#e4ecf7" font-size="12">50° small rubber chiral specimen and contact…</text>
<rect x="1000" y="1378" width="392" height="48" rx="6" fill="#1b2935"/>
<text font-family="Arial, sans-serif" x="1014" y="1397" fill="#8d6bce" font-size="13" font-weight="700">R_PRISM_L1</text>
<text font-family="Arial, sans-serif" x="1014" y="1416" fill="#e4ecf7" font-size="12">Single-layer rubber prism in-plane control</text>
<rect x="1000" y="1433" width="392" height="48" rx="6" fill="#1b2935"/>
<text font-family="Arial, sans-serif" x="1014" y="1452" fill="#8d6bce" font-size="13" font-weight="700">R_PRISM_L2</text>
<text font-family="Arial, sans-serif" x="1014" y="1471" fill="#e4ecf7" font-size="12">Two-layer rubber prism in-plane control</text>
<rect x="1000" y="1488" width="392" height="48" rx="6" fill="#1b2935"/>
<text font-family="Arial, sans-serif" x="1014" y="1507" fill="#8d6bce" font-size="13" font-weight="700">R_PRISM_L4</text>
<text font-family="Arial, sans-serif" x="1014" y="1526" fill="#e4ecf7" font-size="12">Four-layer rubber prism in-plane control</text>
<rect x="1000" y="1543" width="392" height="48" rx="6" fill="#1b2935"/>
<text font-family="Arial, sans-serif" x="1014" y="1562" fill="#8d6bce" font-size="13" font-weight="700">R_PRISM_UNBOXED</text>
<text font-family="Arial, sans-serif" x="1014" y="1581" fill="#e4ecf7" font-size="12">Two-layer rubber prism bulging without lateral…</text>
<rect x="1000" y="1598" width="392" height="48" rx="6" fill="#1b2935"/>
<text font-family="Arial, sans-serif" x="1014" y="1617" fill="#8d6bce" font-size="13" font-weight="700">R_TOOL_DEMO</text>
<text font-family="Arial, sans-serif" x="1014" y="1636" fill="#e4ecf7" font-size="12">Separate demonstration of the tool interaction…</text>
<rect x="1000" y="1653" width="392" height="48" rx="6" fill="#1b2935"/>
<text font-family="Arial, sans-serif" x="1014" y="1672" fill="#8d6bce" font-size="13" font-weight="700">M_CHIRAL1</text>
<text font-family="Arial, sans-serif" x="1014" y="1691" fill="#e4ecf7" font-size="12">TC4 displayed sample chiral 1</text>
<rect x="1000" y="1708" width="392" height="48" rx="6" fill="#1b2935"/>
<text font-family="Arial, sans-serif" x="1014" y="1727" fill="#8d6bce" font-size="13" font-weight="700">M_CHIRAL2</text>
<text font-family="Arial, sans-serif" x="1014" y="1746" fill="#e4ecf7" font-size="12">TC4 displayed sample chiral 2</text>
<rect x="1000" y="1763" width="392" height="48" rx="6" fill="#1b2935"/>
<text font-family="Arial, sans-serif" x="1014" y="1782" fill="#8d6bce" font-size="13" font-weight="700">M_CHIRAL3</text>
<text font-family="Arial, sans-serif" x="1014" y="1801" fill="#e4ecf7" font-size="12">TC4 displayed sample chiral 3</text>
<rect x="1000" y="1818" width="392" height="48" rx="6" fill="#1b2935"/>
<text font-family="Arial, sans-serif" x="1014" y="1837" fill="#8d6bce" font-size="13" font-weight="700">M_CHIRAL4</text>
<text font-family="Arial, sans-serif" x="1014" y="1856" fill="#e4ecf7" font-size="12">TC4 displayed sample chiral 4</text>
<rect x="48" y="365" width="900" height="64" rx="8" fill="#1b2935" stroke="#8d6bce" stroke-opacity=".5"/>
<text font-family="Arial, sans-serif" x="62" y="385" fill="#8d6bce" font-size="12" font-weight="700">01 · FAB01</text>
<text font-family="Arial, sans-serif" x="62" y="405" fill="#edf3fc" font-size="14">Retrieve material-specific feedstock and an empty build tray</text>
<path d="M498,429v12" stroke="#708399" stroke-dasharray="3 3" marker-end="url(#arrow)"/>
<rect x="48" y="441" width="900" height="64" rx="8" fill="#1b2935" stroke="#8d6bce" stroke-opacity=".5"/>
<text font-family="Arial, sans-serif" x="62" y="461" fill="#8d6bce" font-size="12" font-weight="700">02 · FAB02</text>
<text font-family="Arial, sans-serif" x="62" y="481" fill="#edf3fc" font-size="14">Open the printer chamber and load the cartridge</text>
<path d="M498,505v12" stroke="#708399" stroke-dasharray="3 3" marker-end="url(#arrow)"/>
<rect x="48" y="517" width="900" height="64" rx="8" fill="#1b2935" stroke="#8d6bce" stroke-opacity=".5"/>
<text font-family="Arial, sans-serif" x="62" y="537" fill="#8d6bce" font-size="12" font-weight="700">03 · FAB03</text>
<text font-family="Arial, sans-serif" x="62" y="557" fill="#edf3fc" font-size="14">Insert the build tray and start printing for this branch</text>
<path d="M498,581v12" stroke="#708399" stroke-dasharray="3 3" marker-end="url(#arrow)"/>
<rect x="48" y="593" width="900" height="64" rx="8" fill="#1b2935" stroke="#8d6bce" stroke-opacity=".5"/>
<text font-family="Arial, sans-serif" x="62" y="613" fill="#8d6bce" font-size="12" font-weight="700">04 · FAB04</text>
<text font-family="Arial, sans-serif" x="62" y="633" fill="#edf3fc" font-size="14">Remove the completed build tray from the printer chamber</text>
<path d="M498,657v12" stroke="#708399" stroke-dasharray="3 3" marker-end="url(#arrow)"/>
<rect x="48" y="669" width="900" height="64" rx="8" fill="#1b2935" stroke="#8d6bce" stroke-opacity=".5"/>
<text font-family="Arial, sans-serif" x="62" y="689" fill="#8d6bce" font-size="12" font-weight="700">05 · POST_R ↻ repeat contract</text>
<text font-family="Arial, sans-serif" x="62" y="709" fill="#edf3fc" font-size="14">Release rubber parts and place them in compartments</text>
<path d="M498,733v12" stroke="#708399" stroke-dasharray="3 3" marker-end="url(#arrow)"/>
<rect x="48" y="745" width="900" height="64" rx="8" fill="#1b2935" stroke="#8d6bce" stroke-opacity=".5"/>
<text font-family="Arial, sans-serif" x="62" y="765" fill="#8d6bce" font-size="12" font-weight="700">06 · ASM01</text>
<text font-family="Arial, sans-serif" x="62" y="785" fill="#edf3fc" font-size="14">Place the bottom plate and assembly locators</text>
<path d="M498,809v12" stroke="#708399" stroke-dasharray="3 3" marker-end="url(#arrow)"/>
<rect x="48" y="821" width="900" height="64" rx="8" fill="#1b2935" stroke="#8d6bce" stroke-opacity=".5"/>
<text font-family="Arial, sans-serif" x="62" y="841" fill="#8d6bce" font-size="12" font-weight="700">07 · ASM02 ↻ repeat contract</text>
<text font-family="Arial, sans-serif" x="62" y="861" fill="#edf3fc" font-size="14">Place the first layer of separate units</text>
<path d="M498,885v12" stroke="#708399" stroke-dasharray="3 3" marker-end="url(#arrow)"/>
<rect x="48" y="897" width="900" height="64" rx="8" fill="#1b2935" stroke="#8d6bce" stroke-opacity=".5"/>
<text font-family="Arial, sans-serif" x="62" y="917" fill="#8d6bce" font-size="12" font-weight="700">08 · ASM03 ↻ repeat contract</text>
<text font-family="Arial, sans-serif" x="62" y="937" fill="#edf3fc" font-size="14">Stack the second layer and align the interfaces</text>
<path d="M498,961v12" stroke="#708399" stroke-dasharray="3 3" marker-end="url(#arrow)"/>
<rect x="48" y="973" width="900" height="64" rx="8" fill="#1b2935" stroke="#8d6bce" stroke-opacity=".5"/>
<text font-family="Arial, sans-serif" x="62" y="993" fill="#8d6bce" font-size="12" font-weight="700">09 · ASM04</text>
<text font-family="Arial, sans-serif" x="62" y="1013" fill="#edf3fc" font-size="14">Complete reversible joining and place the top plate</text>
<path d="M498,1037v12" stroke="#708399" stroke-dasharray="3 3" marker-end="url(#arrow)"/>
<rect x="48" y="1049" width="900" height="64" rx="8" fill="#1b2935" stroke="#8d6bce" stroke-opacity=".5"/>
<text font-family="Arial, sans-serif" x="62" y="1069" fill="#8d6bce" font-size="12" font-weight="700">10 · ASM05</text>
<text font-family="Arial, sans-serif" x="62" y="1089" fill="#edf3fc" font-size="14">Remove temporary locating tooling and free the intermediate rings</text>
<path d="M498,1113v12" stroke="#708399" stroke-dasharray="3 3" marker-end="url(#arrow)"/>
<rect x="48" y="1125" width="900" height="64" rx="8" fill="#1b2935" stroke="#8d6bce" stroke-opacity=".5"/>
<text font-family="Arial, sans-serif" x="62" y="1145" fill="#8d6bce" font-size="12" font-weight="700">11 · MET01</text>
<text font-family="Arial, sans-serif" x="62" y="1165" fill="#edf3fc" font-size="14">Place the specimen on the balance and retrieve it</text>
<path d="M498,1189v12" stroke="#708399" stroke-dasharray="3 3" marker-end="url(#arrow)"/>
<rect x="48" y="1201" width="900" height="64" rx="8" fill="#1b2935" stroke="#8d6bce" stroke-opacity=".5"/>
<text font-family="Arial, sans-serif" x="62" y="1221" fill="#8d6bce" font-size="12" font-weight="700">12 · MET02</text>
<text font-family="Arial, sans-serif" x="62" y="1241" fill="#edf3fc" font-size="14">Measure the envelope and reference height at the dimensional base</text>
<path d="M498,1265v12" stroke="#708399" stroke-dasharray="3 3" marker-end="url(#arrow)"/>
<rect x="48" y="1277" width="900" height="64" rx="8" fill="#1b2935" stroke="#8d6bce" stroke-opacity=".5"/>
<text font-family="Arial, sans-serif" x="62" y="1297" fill="#8d6bce" font-size="12" font-weight="700">13 · TEST01</text>
<text font-family="Arial, sans-serif" x="62" y="1317" fill="#edf3fc" font-size="14">Transport the specimen by tray to the testing station</text>
<path d="M498,1341v12" stroke="#708399" stroke-dasharray="3 3" marker-end="url(#arrow)"/>
<rect x="48" y="1353" width="900" height="64" rx="8" fill="#1b2935" stroke="#8d6bce" stroke-opacity=".5"/>
<text font-family="Arial, sans-serif" x="62" y="1373" fill="#8d6bce" font-size="12" font-weight="700">14 · TEST02</text>
<text font-family="Arial, sans-serif" x="62" y="1393" fill="#edf3fc" font-size="14">Open the guard, retract the platen, and clear the loading area</text>
<path d="M498,1417v12" stroke="#708399" stroke-dasharray="3 3" marker-end="url(#arrow)"/>
<rect x="48" y="1429" width="900" height="64" rx="8" fill="#1b2935" stroke="#8d6bce" stroke-opacity=".5"/>
<text font-family="Arial, sans-serif" x="62" y="1449" fill="#8d6bce" font-size="12" font-weight="700">15 · TEST03</text>
<text font-family="Arial, sans-serif" x="62" y="1469" fill="#edf3fc" font-size="14">Seat the specimen on the lower platen</text>
<path d="M498,1493v12" stroke="#708399" stroke-dasharray="3 3" marker-end="url(#arrow)"/>
<rect x="48" y="1505" width="900" height="64" rx="8" fill="#1b2935" stroke="#8d6bce" stroke-opacity=".5"/>
<text font-family="Arial, sans-serif" x="62" y="1525" fill="#8d6bce" font-size="12" font-weight="700">16 · BND_FREE</text>
<text font-family="Arial, sans-serif" x="62" y="1545" fill="#edf3fc" font-size="14">Remove ring-bridging constraints and preserve chiral degrees of freedom</text>
<path d="M498,1569v12" stroke="#708399" stroke-dasharray="3 3" marker-end="url(#arrow)"/>
<rect x="48" y="1581" width="900" height="64" rx="8" fill="#1b2935" stroke="#8d6bce" stroke-opacity=".5"/>
<text font-family="Arial, sans-serif" x="62" y="1601" fill="#8d6bce" font-size="12" font-weight="700">17 · OBS01</text>
<text font-family="Arial, sans-serif" x="62" y="1621" fill="#edf3fc" font-size="14">Position the camera and capture the initial shape</text>
<path d="M498,1645v12" stroke="#708399" stroke-dasharray="3 3" marker-end="url(#arrow)"/>
<rect x="48" y="1657" width="900" height="64" rx="8" fill="#1b2935" stroke="#8d6bce" stroke-opacity=".5"/>
<text font-family="Arial, sans-serif" x="62" y="1677" fill="#8d6bce" font-size="12" font-weight="700">18 · TEST04</text>
<text font-family="Arial, sans-serif" x="62" y="1697" fill="#edf3fc" font-size="14">Close the guard and configure the loading program</text>
<path d="M498,1721v12" stroke="#708399" stroke-dasharray="3 3" marker-end="url(#arrow)"/>
<rect x="48" y="1733" width="900" height="64" rx="8" fill="#1b2935" stroke="#8d6bce" stroke-opacity=".5"/>
<text font-family="Arial, sans-serif" x="62" y="1753" fill="#8d6bce" font-size="12" font-weight="700">19 · LOAD</text>
<text font-family="Arial, sans-serif" x="62" y="1773" fill="#edf3fc" font-size="14">Trigger one compression and record deformation</text>
<path d="M498,1797v12" stroke="#708399" stroke-dasharray="3 3" marker-end="url(#arrow)"/>
<rect x="48" y="1809" width="900" height="64" rx="8" fill="#1b2935" stroke="#8d6bce" stroke-opacity=".5"/>
<text font-family="Arial, sans-serif" x="62" y="1829" fill="#8d6bce" font-size="12" font-weight="700">20 · UNLOAD</text>
<text font-family="Arial, sans-serif" x="62" y="1849" fill="#edf3fc" font-size="14">Unload and separate the platens</text>
<path d="M498,1873v12" stroke="#708399" stroke-dasharray="3 3" marker-end="url(#arrow)"/>
<rect x="48" y="1885" width="900" height="64" rx="8" fill="#1b2935" stroke="#8d6bce" stroke-opacity=".5"/>
<text font-family="Arial, sans-serif" x="62" y="1905" fill="#8d6bce" font-size="12" font-weight="700">21 · OBS_RESIDUAL</text>
<text font-family="Arial, sans-serif" x="62" y="1925" fill="#edf3fc" font-size="14">Capture the post-unloading residual state</text>
<path d="M498,1949v12" stroke="#708399" stroke-dasharray="3 3" marker-end="url(#arrow)"/>
<rect x="48" y="1961" width="900" height="64" rx="8" fill="#1b2935" stroke="#8d6bce" stroke-opacity=".5"/>
<text font-family="Arial, sans-serif" x="62" y="1981" fill="#8d6bce" font-size="12" font-weight="700">22 · RELOAD ↻ repeat contract</text>
<text font-family="Arial, sans-serif" x="62" y="2001" fill="#edf3fc" font-size="14">Subsequent compression/unloading of the same object</text>
<path d="M498,2025v12" stroke="#708399" stroke-dasharray="3 3" marker-end="url(#arrow)"/>
<rect x="48" y="2037" width="900" height="64" rx="8" fill="#1b2935" stroke="#8d6bce" stroke-opacity=".5"/>
<text font-family="Arial, sans-serif" x="62" y="2057" fill="#8d6bce" font-size="12" font-weight="700">23 · TEST_REMOVE</text>
<text font-family="Arial, sans-serif" x="62" y="2077" fill="#edf3fc" font-size="14">Open the guard, support the specimen, and remove it</text>
<path d="M498,2101v12" stroke="#708399" stroke-dasharray="3 3" marker-end="url(#arrow)"/>
<rect x="48" y="2113" width="900" height="64" rx="8" fill="#1b2935" stroke="#8d6bce" stroke-opacity=".5"/>
<text font-family="Arial, sans-serif" x="62" y="2133" fill="#8d6bce" font-size="12" font-weight="700">24 · ARCHIVE</text>
<text font-family="Arial, sans-serif" x="62" y="2153" fill="#edf3fc" font-size="14">Deliver the specimen to its numbered archive slot</text>
<path d="M498,2177v12" stroke="#708399" stroke-dasharray="3 3" marker-end="url(#arrow)"/>
<rect x="48" y="2189" width="900" height="64" rx="8" fill="#1b2935" stroke="#8d6bce" stroke-opacity=".5"/>
<text font-family="Arial, sans-serif" x="62" y="2209" fill="#8d6bce" font-size="12" font-weight="700">25 · CLEAN01</text>
<text font-family="Arial, sans-serif" x="62" y="2229" fill="#edf3fc" font-size="14">Clear station debris and return tooling</text>
<path d="M498,2253v12" stroke="#708399" stroke-dasharray="3 3" marker-end="url(#arrow)"/>
<rect x="48" y="2265" width="900" height="64" rx="8" fill="#1b2935" stroke="#8d6bce" stroke-opacity=".5"/>
<text font-family="Arial, sans-serif" x="62" y="2285" fill="#8d6bce" font-size="12" font-weight="700">26 · CLEAN02</text>
<text font-family="Arial, sans-serif" x="62" y="2305" fill="#edf3fc" font-size="14">Recover leftover material and reset the machines</text>
<text font-family="Arial, sans-serif" x="48" y="2372" fill="#a9b7c8" font-size="14">Source snapshot 293e32da7903 · Full branch routes and operation details: chiral.md and interactive explorer</text></svg>